<?xml version="1.0" standalone="no"?>
<!DOCTYPE svg PUBLIC "-//W3C//DTD SVG 20010904//EN"
 "http://www.w3.org/TR/2001/REC-SVG-20010904/DTD/svg10.dtd">
<svg version="1.0" xmlns="http://www.w3.org/2000/svg"
 width="260.000000pt" height="260.000000pt" viewBox="0 0 260.000000 260.000000"
 preserveAspectRatio="xMidYMid meet">

<g transform="translate(0.000000,260.000000) scale(0.100000,-0.100000)"
fill="#ffc897" stroke="none">
<path d="M1117 2425 c-577 -97 -986 -606 -954 -1188 27 -501 368 -912 866
-1044 84 -23 117 -26 266 -27 143 0 184 3 257 22 312 78 556 254 719 516 275
446 206 1030 -166 1401 -261 260 -631 380 -988 320z m438 -165 c169 -46 321
-134 446 -259 126 -126 213 -277 261 -451 20 -73 23 -108 23 -250 0 -189 -17
-272 -84 -416 -126 -269 -368 -471 -651 -545 -106 -28 -300 -37 -408 -19 -367
59 -673 322 -786 676 -39 123 -49 202 -43 348 6 151 28 248 86 372 137 291
393 493 711 560 100 21 343 12 445 -16z"/>
<path d="M1190 1959 c-172 -34 -324 -193 -325 -342 0 -54 3 -61 33 -88 69 -62
166 -27 191 69 16 58 71 132 115 155 102 53 233 19 281 -74 40 -76 11 -132
-138 -272 -85 -79 -122 -121 -141 -160 -30 -63 -40 -149 -23 -197 23 -66 126
-90 171 -41 10 11 24 50 33 88 l15 68 142 140 c172 168 191 201 191 320 0 72
-3 86 -34 143 -85 156 -292 234 -511 191z"/>
<path d="M1213 890 c-41 -25 -63 -68 -63 -122 0 -142 185 -189 260 -66 38 62
17 150 -45 188 -42 26 -110 26 -152 0z"/>
</g>
</svg>
